HIERARCHY
ROOT Hips
{
	OFFSET 0.0000 0.0000 0.0000
	CHANNELS 6 Xposition Yposition Zposition Zrotation Xrotation Yrotation
	JOINT Spine1
	{
		OFFSET -0.0137 5.0038 -0.0537
		CHANNELS 3 Zrotation Xrotation Yrotation
		JOINT Spine2
		{
			OFFSET -0.0000 7.1253 -0.0298
			CHANNELS 3 Zrotation Xrotation Yrotation
			JOINT Chest
			{
				OFFSET -0.0000 7.5501 -0.8160
				CHANNELS 3 Zrotation Xrotation Yrotation
				JOINT Neck1
				{
					OFFSET -0.1817 26.3113 -0.5533
					CHANNELS 3 Zrotation Xrotation Yrotation
					JOINT Neck2
					{
						OFFSET -0.0000 7.7094 2.3026
						CHANNELS 3 Zrotation Xrotation Yrotation
						JOINT Head
						{
							OFFSET -0.0000 6.1289 1.9537
							CHANNELS 3 Zrotation Xrotation Yrotation
							JOINT Jaw
							{
								OFFSET 0.0026 0.4756 3.0949
								CHANNELS 3 Zrotation Xrotation Yrotation
								End Site
								{
									OFFSET 0.0 1.0 0.0
								}
							}
							JOINT LeftEye
							{
								OFFSET 3.2064 5.3802 7.5869
								CHANNELS 3 Zrotation Xrotation Yrotation
								End Site
								{
									OFFSET 0.0 1.0 0.0
								}
							}
							JOINT RightEye
							{
								OFFSET -3.2224 5.3619 7.5582
								CHANNELS 3 Zrotation Xrotation Yrotation
								End Site
								{
									OFFSET 0.0 1.0 0.0
								}
							}
						}
					}
				}
				JOINT LeftShoulder
				{
					OFFSET 1.6217 23.2372 5.1134
					CHANNELS 3 Zrotation Xrotation Yrotation
					JOINT LeftArm
					{
						OFFSET 14.9198 0.0000 -5.5023
						CHANNELS 3 Zrotation Xrotation Yrotation
						JOINT LeftForeArm
						{
							OFFSET 28.7393 0.0000 -0.0026
							CHANNELS 3 Zrotation Xrotation Yrotation
							JOINT LeftHand
							{
								OFFSET 27.0940 -0.0000 0.0026
								CHANNELS 3 Zrotation Xrotation Yrotation
								JOINT LeftHandThumbEnd
								{
									OFFSET 12.2686 -3.2202 4.8331
									CHANNELS 3 Zrotation Xrotation Yrotation
									End Site
									{
										OFFSET 0.0 1.0 0.0
									}
								}
								JOINT LeftHandMiddleEnd
								{
									OFFSET 19.0120 -0.3129 -0.0340
									CHANNELS 3 Zrotation Xrotation Yrotation
									End Site
									{
										OFFSET 0.0 1.0 0.0
									}
								}
							}
						}
					}
				}
				JOINT RightShoulder
				{
					OFFSET -1.3801 23.1803 5.2142
					CHANNELS 3 Zrotation Xrotation Yrotation
					JOINT RightArm
					{
						OFFSET -15.0372 0.0000 -5.5456
						CHANNELS 3 Zrotation Xrotation Yrotation
						JOINT RightForeArm
						{
							OFFSET -28.7366 0.0000 -0.0026
							CHANNELS 3 Zrotation Xrotation Yrotation
							JOINT RightHand
							{
								OFFSET -27.1336 -0.0000 0.0026
								CHANNELS 3 Zrotation Xrotation Yrotation
								JOINT RightHandThumbEnd
								{
									OFFSET -12.2642 -3.2115 4.8040
									CHANNELS 3 Zrotation Xrotation Yrotation
									End Site
									{
										OFFSET 0.0 1.0 0.0
									}
								}
								JOINT RightHandMiddleEnd
								{
									OFFSET -19.0006 -0.3066 -0.0316
									CHANNELS 3 Zrotation Xrotation Yrotation
									End Site
									{
										OFFSET 0.0 1.0 0.0
									}
								}
							}
						}
					}
				}
			}
		}
	}
	JOINT LeftLeg
	{
		OFFSET 10.0432 -8.4345 2.5957
		CHANNELS 3 Zrotation Xrotation Yrotation
		JOINT LeftShin
		{
			OFFSET -0.0000 -43.2218 -0.8029
			CHANNELS 3 Zrotation Xrotation Yrotation
			JOINT LeftFoot
			{
				OFFSET 0.0000 -42.1551 -3.4815
				CHANNELS 3 Zrotation Xrotation Yrotation
				JOINT LeftToeBase
				{
					OFFSET 0.0000 -5.0595 13.2315
					CHANNELS 3 Zrotation Xrotation Yrotation
					End Site
					{
						OFFSET 0.0 1.0 0.0
					}
				}
			}
		}
	}
	JOINT RightLeg
	{
		OFFSET -10.0473 -8.2953 2.6203
		CHANNELS 3 Zrotation Xrotation Yrotation
		JOINT RightShin
		{
			OFFSET 0.0000 -43.3622 -0.8056
			CHANNELS 3 Zrotation Xrotation Yrotation
			JOINT RightFoot
			{
				OFFSET 0.0000 -42.1174 -3.4784
				CHANNELS 3 Zrotation Xrotation Yrotation
				JOINT RightToeBase
				{
					OFFSET -0.0000 -5.0796 13.2842
					CHANNELS 3 Zrotation Xrotation Yrotation
					End Site
					{
						OFFSET 0.0 1.0 0.0
					}
				}
			}
		}
	}
}
MOTION
Frames: 5
Frame Time: 0.033333
1.3093 98.5638 -0.0812 1.8091 -5.5856 -0.6599 -2.1687 0.4709 0.2331 -0.7242 -4.6134 0.6169 -1.0634 11.0797 -1.6850 -7.9625 -1.1572 5.4284 -1.0391 -3.8160 -1.4680 -2.0629 -15.1433 -1.5420 0.0850 0.0413 -0.0714 0.6719 -10.6504 -3.9927 -0.5100 -10.6466 3.8258 -8.9262 13.9615 -6.1927 -64.7988 5.3945 -20.8082 -0.1202 0.1772 -36.1694 12.2710 4.1323 2.5197 -15.5466 10.8820 15.8301 -60.5425 1.9046 2.1068 14.6891 10.4291 16.8018 50.9851 -38.6658 -24.3725 2.2669 0.6441 59.6152 -43.9013 -49.0054 20.7737 14.9002 7.3341 -15.2152 49.3622 -3.0227 -4.9694 6.6462 0.0045 18.5622 -0.0724 12.3499 -0.3390 -8.7211 -7.0609 -2.0037 1.6242 -0.3986 -2.2031 -13.8654 -6.3238 -27.7696 0.1803 16.5892 0.3706 9.5819 -7.8913 4.1177 -1.4133 -0.4138 0.8648
1.1341 98.5826 -0.0691 1.7135 -5.4149 -0.7265 -2.1251 0.5182 0.1838 -0.6906 -4.6179 0.6245 -0.8906 11.0859 -1.7394 -7.9798 -1.1905 5.4352 -1.0333 -3.8188 -1.4016 -2.2804 -15.3404 -1.3467 0.0872 0.0391 -0.0590 0.6727 -10.6214 -3.9741 -0.5063 -10.6264 3.8311 -8.6870 14.0553 -6.1124 -65.0858 5.3217 -20.6692 -0.2405 0.0871 -36.3316 12.3536 4.5227 2.3174 -15.5088 10.8735 15.7927 -60.5149 1.9298 1.9702 14.9305 10.4883 16.6701 50.7925 -38.5161 -24.2469 1.9664 0.6003 59.3279 -43.6320 -48.6384 20.8505 14.9252 7.3697 -15.2985 49.6182 -3.0312 -4.9711 6.8085 -0.1882 18.5953 -0.0903 12.2732 -0.3803 -8.9064 -6.9872 -1.9667 1.6289 -0.4605 -2.2269 -13.5751 -6.3514 -27.7130 0.1671 16.5048 0.3517 9.4429 -7.9380 4.0586 -1.4191 -0.3375 0.8493
0.9454 98.5859 -0.1061 1.6313 -5.2170 -0.7522 -2.0713 0.5746 0.1450 -0.6812 -4.6313 0.5870 -0.6968 11.1549 -1.7794 -8.0199 -1.2798 5.4723 -1.0054 -3.8447 -1.3867 -2.5388 -15.5115 -1.1595 0.0858 0.0366 -0.0655 0.6660 -10.6228 -3.9763 -0.5021 -10.6275 3.8202 -8.4196 14.1224 -6.0560 -65.4232 5.3367 -20.4957 -0.3335 -0.0010 -36.6478 12.3709 4.6953 2.1805 -15.5240 10.8857 15.8223 -60.5137 1.9420 1.9718 15.1585 10.4969 16.5558 50.5406 -38.3976 -24.2210 1.7606 0.5905 59.0731 -43.5974 -48.3492 21.0038 14.9422 7.3306 -15.3613 49.7168 -3.0828 -4.9811 6.9556 -0.5011 18.6498 -0.1008 12.3245 -0.4013 -9.0073 -6.9343 -2.0711 1.6338 -0.4958 -2.2144 -13.2915 -6.4964 -27.6894 0.1536 16.5776 0.3142 9.3228 -8.0300 4.0277 -1.4222 -0.2510 0.8439
0.7411 98.5844 -0.1608 1.5748 -5.0045 -0.7632 -2.0152 0.6594 0.1183 -0.6780 -4.6480 0.5386 -0.4932 11.2519 -1.8262 -8.1077 -1.3755 5.5268 -0.9944 -3.8773 -1.3942 -2.7833 -15.7559 -0.9937 0.0811 0.0356 -0.0750 0.6598 -10.6450 -3.9836 -0.5051 -10.6433 3.8091 -8.1896 14.2041 -6.0159 -65.7354 5.3806 -20.3775 -0.3901 -0.0605 -36.9807 12.3996 4.8720 2.1029 -15.5483 10.8871 15.8441 -60.5621 1.9495 1.9621 15.3723 10.5220 16.4435 50.2371 -38.2825 -24.2093 1.6426 0.5775 58.8907 -43.8983 -48.1890 21.3661 14.9817 7.2468 -15.3669 49.7374 -3.1500 -5.0039 7.0708 -0.8631 18.7192 -0.1034 12.4034 -0.4009 -9.0991 -6.8595 -2.2146 1.6351 -0.5220 -2.1942 -13.0177 -6.7315 -27.6826 0.1315 16.7701 0.2664 9.1912 -8.1608 4.0468 -1.4243 -0.1871 0.8320
0.5632 98.5795 -0.2232 1.5487 -4.8010 -0.7613 -1.9547 0.7673 0.1158 -0.6703 -4.6623 0.4548 -0.3020 11.3600 -1.8581 -8.1976 -1.4464 5.5583 -0.9961 -3.8885 -1.3863 -3.0380 -16.1011 -0.8458 0.0763 0.0387 -0.0739 0.6568 -10.6579 -3.9788 -0.5124 -10.6535 3.8082 -7.9781 14.2753 -5.9838 -66.0384 5.3979 -20.3013 -0.4432 -0.0845 -37.1775 12.4167 5.0073 2.0784 -15.5252 10.8793 15.8368 -60.5377 1.9501 1.9132 15.5027 10.5318 16.3212 49.9379 -38.1220 -24.1428 1.4959 0.6014 58.6974 -44.4633 -48.3959 22.0111 14.9923 7.1803 -15.3577 49.7057 -3.2070 -5.0144 7.1487 -1.2044 18.7736 -0.1031 12.4559 -0.3960 -9.1788 -6.7700 -2.3137 1.6322 -0.5321 -2.1864 -12.7842 -7.0237 -27.7303 0.1167 17.0345 0.2235 9.0851 -8.3100 4.1054 -1.4254 -0.1468 0.8294
